<svg id="SS-Peacock_Icon" xmlns="http://www.w3.org/2000/svg" width="2.62in" height="1.85in" xmlns:xlink="http://www.w3.org/1999/xlink" viewBox="0 0 188.83 164.26"><defs><style>.cls-1{fill:url(#linear-gradient);}.cls-1,.cls-2,.cls-3{stroke-width:0px;}.cls-2{fill:#1b687e;}.cls-3{fill:#c5844d;}</style><linearGradient id="linear-gradient" x1="55.4" y1="21.58" x2="123.46" y2="118.78" gradientUnits="userSpaceOnUse"><stop offset="0" stop-color="#2da58a"/><stop offset="1" stop-color="#1b4b7e"/></linearGradient></defs><path class="cls-2" d="M174.95,90.57c.23-2.89.33-5.81.24-8.78-.47-14.48-5.08-27.99-12.65-39.39,3.1,6.31,4.83,13.19,4.83,20.4,0,28.73-27.11,52.32-61.75,54.94-2.96.75-6.01,1.15-9.09,1.15h-8.89c-16.25,0-29.92,9.8-35.94,23.51,12.94,9.54,29.07,15.22,46.56,15.22,39.83,0,72.6-29.36,76.69-67.04Z"/><path class="cls-1" d="M162.54,42.4c-13.21-19.91-35.47-33.39-60.74-34.35-25.59-.96-48.51,10.7-63.06,29.25-10.17,12.98-16.25,29.32-16.25,47.09,0,12.01,2.78,23.37,7.72,33.48.22-10.32,4.01-19.77,10.16-27.19,3.33-4.03,7.35-7.46,11.89-10.1,4.96-2.88,9.25-6.88,11.82-12.01,5.8-11.67,17.83-19.7,31.78-19.7,19.58,0,35.49,15.89,35.49,35.52,0,11.17-5.18,21.14-13.25,27.63-1.08.86-2.8,1.87-4.72,2.83-2.47,1.26-5.08,2.22-7.76,2.9,34.64-2.62,61.75-26.21,61.75-54.94,0-7.21-1.72-14.09-4.83-20.4ZM35.7,75.39c-1.05.29-2.11-.19-2.68-1.1-2.4-3.91,2.16-11.96,4.72-13.21-.14.26-.98,1.89-1.49,3.59.72-.1,1.46-.02,2.18.26,5.34,2.09,1.22,9.32-2.73,10.45Z"/><path class="cls-3" d="M31.38,41.07c2.42-5.06,5.38-9.3,8.93-11.7-17.42,2.75-20.23,16.04-19.5,29.04-2.02-6.9-3.15-15.54.92-21.1-14.43,3.55-8.97,15.37-2.93,23.82-4.67-3.8-8.95-8.66-8.81-12.88-7.58,9.77,1.86,14.87,10.4,17.37,2.17-8.73,5.88-16.99,11-24.54Z"/></svg>
