<svg id="SS-BLUE_Peacock_Icon" xmlns="http://www.w3.org/2000/svg" width="2.61in" height="2.28in" viewBox="0 0 188.17 164.26"><defs><style>.cls-1{fill:#c5844d;}.cls-1,.cls-2{stroke-width:0px;}.cls-2{fill:#1b4b7e;}</style></defs><path class="cls-1" d="M32.76,38.74c2.51-5.25,5.59-9.66,9.27-12.15-18.08,2.85-21,16.65-20.25,30.15-2.1-7.16-3.27-16.14.96-21.91-14.98,3.68-9.32,15.96-3.04,24.73-4.84-3.94-9.3-8.99-9.15-13.37-7.87,10.14,1.93,15.43,10.79,18.03,2.25-9.06,6.1-17.63,11.42-25.48Z"/><path class="cls-2" d="M85.77,120.78c-14.41,0-27.71,8.25-34.18,21.1,13.23,9.24,30.89,15.43,47.26,15.43,39.8,0,72.97-28.96,77.14-67.37.25-3.07.33-5.96.24-8.78-.22-6.57-1.27-13.01-3.15-19.24-.16,13.71-6.02,26.99-16.55,37.47-11.11,11.05-26.59,18.31-44.78,21-7.6,1.12-17.7.39-25.97.39Z"/><path class="cls-2" d="M168.03,58.81c-2.46-30.17-35.97-50.38-65.61-51.79-25.43-1.74-49.93,10.7-65.6,33.21-14.6,20.98-18.29,46.12-10.23,68.21,2.26-12.67,10.42-20.14,19.82-27.72,5.95-4.79,9.96-5.9,13.63-10.91,4.62-6.3,9.99-15.99,16.91-20.32,22.95-14.36,52.28,2.06,58.24,26.91,1.96,8.15,2.51,23.27-13.62,37.02,24.99-6.5,48.19-27.6,46.46-54.61ZM35.96,63.36c2.17.46,3.3,1.69,3.34,3.66.06,2.73-1.85,5.83-4.31,7.02-2.42,1.18-4.56-.94-4.63-3.27-.11-3.66,2.72-8.76,5.71-11.27-.38.72-.73,1.46-1.02,2.18l-.54,1.37,1.44.3Z"/></svg>