<svg id="Sanskar_Savvy_Main_Gradient_Color" xmlns="http://www.w3.org/2000/svg" width="5in" height="1.35in" xmlns:xlink="http://www.w3.org/1999/xlink" viewBox="0 0 360 164.26"><defs><style>.cls-122{fill:url(#linear-gradient);}.cls-122,.cls-232,.cls-311,.cls-444,.cls-517,.cls-661,.cls-717,.cls-866,.cls-923{stroke-width:0px;}.cls-232{fill:url(#linear-gradient-6);}.cls-311{fill:#1b687e;}.cls-444{fill:url(#linear-gradient-5);}.cls-517{fill:#c5844d;}.cls-661{fill:url(#linear-gradient-2);}.cls-717{fill:url(#linear-gradient-7);}.cls-866{fill:url(#linear-gradient-3);}.cls-923{fill:url(#linear-gradient-4);}</style><linearGradient id="linear-gradient" x1="140.98" y1="37.41" x2="140.98" y2="100.5" gradientUnits="userSpaceOnUse"><stop offset="0" stop-color="#2da58a"/><stop offset="1" stop-color="#1b4b7e"/></linearGradient><linearGradient id="linear-gradient-2" x1="176.45" y1="37.41" x2="176.45" y2="100.5" xlink:href="#linear-gradient"/><linearGradient id="linear-gradient-3" x1="212.05" y1="36.87" x2="212.05" y2="101.05" xlink:href="#linear-gradient"/><linearGradient id="linear-gradient-4" x1="265.9" y1="37.41" x2="265.9" y2="100.5" gradientUnits="userSpaceOnUse"><stop offset="0" stop-color="#2da58a"/><stop offset="1" stop-color="#1b4b7e"/></linearGradient><linearGradient id="linear-gradient-5" x1="318.76" y1="37.41" x2="318.76" y2="100.5" xlink:href="#linear-gradient"/><linearGradient id="linear-gradient-6" x1="121.47" y1="55.86" x2="103.83" y2="155.91" xlink:href="#linear-gradient"/><linearGradient id="linear-gradient-7" x1="34.58" y1="20.55" x2="62.98" y2="61.1" xlink:href="#linear-gradient"/></defs><path class="cls-311" d="M150.86,15.61h-76.4c7.92,4.02,11.09,8.37,14.46,16.95h10.22v67.68c1.63,1.43,3.33,2.8,5.08,4,4.11,2.87,8.37,5.5,12.74,7.97V32.56s33.9,0,33.9,0V15.61Z"/><path class="cls-122" d="M131.11,37.41l-8.29,63.09h13.25l.48-5.91-5.49-1.99h12.31s.72,7.9.72,7.9h15.05l-8.29-63.09h-19.74ZM137.87,79.86l2.17-24.69,2.16,24.69h-4.33Z"/><polygon class="cls-661" points="180.14 60.13 174.83 37.41 160.14 37.41 160.14 100.5 172.75 100.5 172.57 75 178.7 100.5 192.76 100.5 192.76 37.41 180.14 37.41 180.14 60.13"/><path class="cls-866" d="M223.13,66.62l-11.45-6.85c-.9-.54-1.26-1.08-1.26-2.16v-7.21c0-.81.36-1.17,1.17-1.17h.9c.81,0,1.17.36,1.17,1.17v9.28h14.87v-9.28c0-9.1-4.42-13.52-13.52-13.52h-6.13c-9.1,0-13.52,4.42-13.52,13.52v8.83c0,5.23,1.26,8.65,5.59,11.27l11.36,6.76c.9.54,1.26,1.08,1.26,2.16v8.11c0,.81-.36,1.17-1.17,1.17h-.99c-.81,0-1.17-.36-1.17-1.17v-10.19h-14.87v10.19c0,9.1,4.42,13.52,13.52,13.52h6.31c9.1,0,13.52-4.42,13.52-13.52v-9.64c0-5.23-1.35-8.65-5.59-11.27Z"/><path class="cls-923" d="M272.79,37.41l-7.72,58.64-4.9-28.18,5.86-30.46h-15.41l-4.33,26.86v-26.86h-15.32v63.09h15.32v-26.05l3.7,26.05h27.75s.48-5.9.48-5.9l-5.5-2h12.33s.72,7.9.72,7.9h15.05l-8.29-63.09h-19.74ZM279.55,79.86l2.16-24.69,2.16,24.69h-4.32Z"/><path class="cls-444" d="M328.76,71.57c4.33-1.44,6.85-4.42,6.85-10.36v-10.28c0-9.1-4.42-13.52-13.52-13.52h-20.28v63.09h15.32v-22.53h2.07c.81,0,1.17.36,1.17,1.17v21.36h15.32v-20.01c0-5.05-2.07-7.75-6.94-8.92ZM320.29,64.27c0,.81-.36,1.17-1.17,1.17h-1.98v-15.23h1.98c.81,0,1.17.36,1.17,1.17v12.89Z"/><path class="cls-517" d="M193.88,123.28v5.26c0,3.55-1.75,5.3-5.3,5.3h-3.18c-3.55,0-5.3-1.75-5.3-5.3v-6.08h5.59v5.55c0,.69.33,1.02,1.02,1.02h.53c.69,0,1.02-.33,1.02-1.02v-3.43c0-.9-.29-1.35-.98-1.84l-4.9-3.63c-1.75-1.27-2.29-2.45-2.29-4.49v-4.53c0-3.55,1.75-5.3,5.3-5.3h3.1c3.55,0,5.3,1.75,5.3,5.3v5.22h-5.59v-4.69c0-.69-.33-1.02-1.02-1.02h-.45c-.69,0-1.02.33-1.02,1.02v2.69c0,.9.29,1.35.98,1.84l4.9,3.63c1.75,1.27,2.29,2.37,2.29,4.49Z"/><path class="cls-517" d="M224.6,133.61l-.45-4.16h-3.59l-.41,4.16h-5.18l3.75-28.56h7.79l3.75,28.56h-5.67ZM221.09,124.47h2.53l-1.27-12.44-1.26,12.44Z"/><path class="cls-517" d="M253.7,133.61l-3.83-28.56h5.79l2,20.28,2.08-20.28h5.3l-3.84,28.56h-7.51Z"/><path class="cls-517" d="M289.07,133.61l-3.83-28.56h5.79l2,20.28,2.08-20.28h5.3l-3.84,28.56h-7.51Z"/><path class="cls-517" d="M330.9,133.61h-5.71v-9.75l-4.81-18.81h5.96l1.92,9.71,2.04-9.71h5.43l-4.81,18.4v10.16Z"/><path class="cls-232" d="M94.28,125.49c-13.75-9.68-31.32-29.74-44.04-45.41h.32c11.12,11.79,27.47,27.18,49.31,42.85,45.65,32.74,93.38,14.91,93.38,14.91,0,0-39.42,1.67-80.85-23.67-15.8-9.66-33.37-22.99-47.22-34.09h51.77v-18.93h-35.81c1.83-3.6,2.98-7.59,3.32-11.82-1.71,15.72-15.38,27.97-32,27.97-7.3,0-14.03-2.37-19.43-6.35-1.18,2.69-1.66,5.74-1.2,8.9.02.07.03.15.04.22,2.54,17.14,7.51,39.05,16.99,51.86,17.25,23.3,53.75,22.49,53.75,22.49,0,0-23.58-8.65-45-36.56-6.74-8.8-12.23-21.74-16.27-33.58,11.22,20,28.6,46.36,47.44,57.77,39.81,24.13,80.67,9.09,82.1,8.55-1.38.08-38.1,2-76.6-25.12Z"/><path class="cls-311" d="M84.47,49.34c.1-1.2.14-2.43.1-3.66-.2-6.04-2.12-11.68-5.28-16.44,1.3,2.63,2.01,5.5,2.01,8.51,0,11.99-11.31,21.83-25.76,22.93-1.23.31-2.51.48-3.79.48h-3.71c-6.78,0-12.49,4.09-15,9.81,5.4,3.98,12.13,6.35,19.43,6.35,16.62,0,30.29-12.25,32-27.97Z"/><path class="cls-717" d="M79.29,29.23c-5.51-8.31-14.8-13.93-25.34-14.33-10.68-.4-20.24,4.47-26.31,12.2-4.24,5.41-6.78,12.23-6.78,19.65,0,5.01,1.16,9.75,3.22,13.97.09-4.31,1.67-8.25,4.24-11.35,1.39-1.68,3.07-3.11,4.96-4.21,2.07-1.2,3.86-2.87,4.93-5.01,2.42-4.87,7.44-8.22,13.26-8.22,8.17,0,14.81,6.63,14.81,14.82,0,4.66-2.16,8.82-5.53,11.53-.45.36-1.17.78-1.97,1.18-1.03.53-2.12.93-3.24,1.21,14.45-1.09,25.76-10.94,25.76-22.93,0-3.01-.72-5.88-2.01-8.51ZM26.36,43c-.44.12-.88-.08-1.12-.46-1-1.63.9-4.99,1.97-5.51-.06.11-.41.79-.62,1.5.3-.04.61,0,.91.11,2.23.87.51,3.89-1.14,4.36Z"/><path class="cls-517" d="M24.56,28.68c1.01-2.11,2.25-3.88,3.72-4.88-7.27,1.15-8.44,6.69-8.14,12.12-.84-2.88-1.31-6.49.38-8.81-6.02,1.48-3.74,6.41-1.22,9.94-1.95-1.59-3.74-3.61-3.68-5.37-3.16,4.08.78,6.2,4.34,7.25.9-3.64,2.45-7.09,4.59-10.24Z"/></svg>
