<svg id="Sanskar_Savvy_Main_Blue" xmlns="http://www.w3.org/2000/svg" width="5in" height="2.28in" viewBox="0 0 360 164.26"><defs><style>.cls-1{fill:#c5844d;}.cls-1,.cls-2{stroke-width:0px;}.cls-2{fill:#1b4b7e;}</style></defs><path class="cls-2" d="M129.42,34.96l-8.29,63.09h13.25l.48-5.91-5.49-1.99h12.31s.72,7.9.72,7.9h15.05l-8.29-63.09h-19.74ZM136.18,77.41l2.17-24.69,2.16,24.69h-4.33Z"/><polygon class="cls-2" points="178.45 57.67 173.13 34.96 158.44 34.96 158.44 98.05 171.05 98.05 170.87 72.55 177 98.05 191.06 98.05 191.06 34.96 178.45 34.96 178.45 57.67"/><path class="cls-2" d="M221.44,64.16l-11.45-6.85c-.9-.54-1.26-1.08-1.26-2.16v-7.21c0-.81.36-1.17,1.17-1.17h.9c.81,0,1.17.36,1.17,1.17v9.28h14.87v-9.28c0-9.1-4.42-13.52-13.52-13.52h-6.13c-9.1,0-13.52,4.42-13.52,13.52v8.83c0,5.23,1.26,8.65,5.59,11.27l11.36,6.76c.9.54,1.26,1.08,1.26,2.16v8.11c0,.81-.36,1.17-1.17,1.17h-.99c-.81,0-1.17-.36-1.17-1.17v-10.19h-14.87v10.19c0,9.1,4.42,13.52,13.52,13.52h6.31c9.1,0,13.52-4.42,13.52-13.52v-9.64c0-5.23-1.35-8.65-5.59-11.27Z"/><path class="cls-2" d="M271.1,34.96l-7.72,58.64-4.9-28.18,5.86-30.46h-15.41l-4.33,26.86v-26.86h-15.32v63.09h15.32v-26.05l3.7,26.05h27.75s.48-5.9.48-5.9l-5.5-2h12.33s.72,7.9.72,7.9h15.05l-8.29-63.09h-19.74ZM277.86,77.41l2.16-24.69,2.16,24.69h-4.32Z"/><path class="cls-2" d="M327.06,69.12c4.33-1.44,6.85-4.42,6.85-10.36v-10.28c0-9.1-4.42-13.52-13.52-13.52h-20.28v63.09h15.32v-22.53h2.07c.81,0,1.17.36,1.17,1.17v21.36h15.32v-20.01c0-5.05-2.07-7.75-6.94-8.92ZM318.59,61.82c0,.81-.36,1.17-1.17,1.17h-1.98v-15.23h1.98c.81,0,1.17.36,1.17,1.17v12.89Z"/><path class="cls-1" d="M192.38,120.62v5.26c0,3.55-1.75,5.3-5.3,5.3h-3.18c-3.55,0-5.3-1.75-5.3-5.3v-6.08h5.59v5.55c0,.69.33,1.02,1.02,1.02h.53c.69,0,1.02-.33,1.02-1.02v-3.43c0-.9-.29-1.35-.98-1.84l-4.9-3.63c-1.75-1.27-2.28-2.45-2.28-4.49v-4.53c0-3.55,1.75-5.3,5.3-5.3h3.1c3.55,0,5.3,1.75,5.3,5.3v5.22h-5.59v-4.69c0-.69-.33-1.02-1.02-1.02h-.45c-.69,0-1.02.33-1.02,1.02v2.69c0,.9.29,1.35.98,1.84l4.9,3.63c1.75,1.27,2.29,2.37,2.29,4.49Z"/><path class="cls-1" d="M223.1,130.94l-.45-4.16h-3.59l-.41,4.16h-5.18l3.75-28.56h7.79l3.75,28.56h-5.67ZM219.59,121.8h2.53l-1.27-12.44-1.26,12.44Z"/><path class="cls-1" d="M252.2,130.94l-3.83-28.56h5.79l2,20.28,2.08-20.28h5.3l-3.84,28.56h-7.51Z"/><path class="cls-1" d="M287.57,130.94l-3.83-28.56h5.79l2,20.28,2.08-20.28h5.3l-3.84,28.56h-7.51Z"/><path class="cls-1" d="M329.39,130.94h-5.71v-9.75l-4.81-18.81h5.96l1.92,9.71,2.04-9.71h5.43l-4.81,18.4v10.16Z"/><path class="cls-1" d="M25.89,26.94c1.01-2.11,2.25-3.88,3.72-4.88-7.27,1.15-8.44,6.69-8.14,12.12-.84-2.88-1.31-6.49.38-8.81-6.02,1.48-3.74,6.41-1.22,9.94-1.95-1.59-3.74-3.61-3.68-5.37-3.16,4.08.78,6.2,4.34,7.25.9-3.64,2.45-7.09,4.59-10.24Z"/><path class="cls-2" d="M94.27,123.78c-13.75-9.68-31.32-29.74-44.04-45.41h.32c11.12,11.79,27.47,27.18,49.31,42.85,45.65,32.74,93.38,14.91,93.38,14.91,0,0-39.42,1.67-80.85-23.67-15.8-9.66-33.37-22.99-47.22-34.09h33.94v20.16c1.63,1.43,13.46,9.51,17.82,11.97V30.85s33.9,0,33.9,0V13.9h-79.18c7.92,4.02,11.76,8.21,14.46,16.95h12.99v28.59h-17.27c-5.54,10-17.02,16.66-29.4,16.66-7.14,0-13.92-2.21-19.62-6.37-1.04,2.57-1.45,5.45-1.01,8.43.02.07.03.15.04.22,2.54,17.14,7.51,39.05,16.99,51.86,17.25,23.3,53.75,22.49,53.75,22.49,0,0-23.58-8.65-45-36.56-6.74-8.8-12.23-21.74-16.27-33.58,11.22,20,28.6,46.36,47.44,57.77,39.81,24.13,80.67,9.09,82.1,8.55-1.38.08-38.1,2-76.6-25.12Z"/><path class="cls-2" d="M47.2,59.91c-5.79,0-11.14,3.32-13.74,8.48,5.32,3.71,12.42,6.2,18.99,6.2,16,0,29.33-11.64,31.01-27.08.1-1.24.13-2.39.1-3.53-.09-2.64-.51-5.23-1.27-7.73-.06,5.51-2.42,10.85-6.65,15.06-4.46,4.44-10.69,7.36-18,8.44-3.06.45-7.11.15-10.44.15Z"/><path class="cls-2" d="M80.26,35c-.99-12.13-14.46-20.25-26.37-20.82-10.22-.7-20.07,4.3-26.36,13.35-5.87,8.43-7.35,18.54-4.11,27.41.91-5.09,4.19-8.1,7.97-11.14,2.39-1.93,4-2.37,5.48-4.38,1.86-2.53,4.01-6.43,6.8-8.17,9.22-5.77,21.01.83,23.41,10.82.79,3.28,1.01,9.35-5.47,14.88,10.04-2.61,19.37-11.09,18.67-21.95ZM27.18,36.83c.87.19,1.33.68,1.34,1.47.02,1.1-.74,2.34-1.73,2.82-.97.47-1.83-.38-1.86-1.32-.04-1.47,1.09-3.52,2.3-4.53-.15.29-.29.59-.41.88l-.22.55.58.12Z"/></svg>