<svg width="239" height="188" viewBox="0 0 239 188" fill="none" xmlns="http://www.w3.org/2000/svg"><path d="M181.751 0.976593H79.9468C90.5003 6.33333 94.7244 12.1298 99.215 23.5628H112.833V113.748C115.005 115.653 117.271 117.479 119.603 119.078C125.079 122.902 130.756 126.407 136.579 129.698V23.5628H181.751V0.976593Z" fill="#1B687E"/><path d="M106.357 147.394C88.0353 134.495 64.6229 107.765 47.6732 86.8842H48.0996C62.9173 102.595 84.704 123.102 113.806 143.983C174.636 187.61 238.237 163.851 238.237 163.851C238.237 163.851 185.709 166.076 130.503 132.31C109.449 119.438 86.0365 101.675 67.5811 86.8842H136.566V61.6596H88.8481C91.2867 56.8625 92.8191 51.5458 93.2721 45.9092C90.9935 66.8564 72.7779 83.1798 50.6314 83.1798C40.904 83.1798 31.9362 80.0218 24.7405 74.7183C23.1682 78.3028 22.5285 82.367 23.1415 86.5778C23.1682 86.671 23.1815 86.7776 23.1948 86.8709C26.5794 109.71 33.202 138.906 45.8344 155.975C68.8203 187.023 117.457 185.944 117.457 185.944C117.457 185.944 86.0365 174.418 57.4939 137.227C48.5127 125.501 41.1972 108.258 35.8138 92.4808C50.7647 119.131 73.9239 154.257 99.0286 169.461C152.076 201.614 206.523 181.573 208.429 180.854C206.59 180.96 157.66 183.519 106.357 147.381V147.394Z" fill="url(#paint0_linear_1103_748)"/><path d="M93.2855 45.9226C93.4187 44.3235 93.472 42.6845 93.4187 41.0455C93.1522 32.9971 90.5938 25.4817 86.383 19.1389C88.1153 22.6434 89.0614 26.4678 89.0614 30.4786C89.0614 46.4556 73.9906 59.5676 54.7356 61.0334C53.0966 61.4464 51.391 61.673 49.6854 61.673H44.7417C35.7072 61.673 28.0985 67.123 24.7539 74.745C31.9495 80.0485 40.9174 83.2065 50.6448 83.2065C72.7913 83.2065 91.0069 66.8831 93.2855 45.9359V45.9226Z" fill="#1B687E"/><path d="M86.3827 19.1256C79.0405 8.0523 66.6614 0.563529 52.6166 0.0305199C38.3852 -0.502489 25.6463 5.98689 17.5579 16.2873C11.908 23.4962 8.52344 32.584 8.52344 42.4713C8.52344 49.1473 10.0692 55.4634 12.8142 61.0867C12.9341 55.3435 15.0395 50.0934 18.464 45.9625C20.3163 43.7239 22.5549 41.8184 25.0734 40.3526C27.8317 38.7536 30.2169 36.5283 31.6427 33.6767C34.8674 27.1873 41.5566 22.7234 49.3119 22.7234C60.1986 22.7234 69.0466 31.558 69.0466 42.4713C69.0466 48.6809 66.1683 54.2242 61.6777 57.8353C61.0781 58.315 60.1187 58.8747 59.0527 59.4077C57.6802 60.1139 56.2277 60.6469 54.7353 61.02C73.9902 59.5676 89.061 46.4422 89.061 30.4653C89.061 26.4544 88.1016 22.6301 86.3827 19.1256ZM15.8523 37.4744C15.266 37.6343 14.6797 37.3678 14.3599 36.8614C13.0274 34.6894 15.5591 30.2121 16.9849 29.5192C16.905 29.6658 16.4386 30.5719 16.1588 31.518C16.5585 31.4647 16.9716 31.518 17.3714 31.6646C20.3429 32.8239 18.051 36.8481 15.8523 37.4744Z" fill="url(#paint1_linear_1103_748)"/><path d="M13.4538 18.3927C14.7996 15.581 16.452 13.2225 18.4108 11.89C8.72334 13.4224 7.16429 20.8045 7.56404 28.0401C6.44473 24.2025 5.81844 19.3921 8.0704 16.3006C0.0486237 18.2727 3.08677 24.8421 6.44473 29.5459C3.84631 27.4272 1.4611 24.7355 1.54105 22.3902C-2.66972 27.8269 2.58041 30.6519 7.32419 32.051C8.52346 27.2006 10.5889 22.6034 13.4405 18.406L13.4538 18.3927Z" fill="#C5844D"/><defs><linearGradient id="paint0_linear_1103_748" x1="142.589" y1="54.6106" x2="119.083" y2="187.929" gradientUnits="userSpaceOnUse"><stop stop-color="#2DA58A"/><stop offset="1" stop-color="#1B4B7E"/></linearGradient><linearGradient id="paint1_linear_1103_748" x1="26.8056" y1="7.55927" x2="64.6492" y2="61.593" gradientUnits="userSpaceOnUse"><stop stop-color="#2DA58A"/><stop offset="1" stop-color="#1B4B7E"/></linearGradient></defs></svg>
